<svg width="16" height="16" viewBox="0 0 16 16" fill="none" xmlns="http://www.w3.org/2000/svg">
<path d="M10.4667 8.46666L6.46667 12.4667C6.33334 12.6 6.2 12.6667 6 12.6667C5.8 12.6667 5.66667 12.6 5.53334 12.4667C5.26667 12.2 5.26667 11.8 5.53334 11.5333L9.06667 8L5.53334 4.46666C5.26667 4.19999 5.26667 3.79999 5.53334 3.53333C5.8 3.26666 6.2 3.26666 6.46667 3.53333L10.4667 7.53333C10.7333 7.79999 10.7333 8.2 10.4667 8.46666Z" fill="white"/>
<mask id="mask0_5790_162" style="mask-type:alpha" maskUnits="userSpaceOnUse" x="5" y="3" width="6" height="10">
<path d="M10.4667 8.46666L6.46667 12.4667C6.33334 12.6 6.2 12.6667 6 12.6667C5.8 12.6667 5.66667 12.6 5.53334 12.4667C5.26667 12.2 5.26667 11.8 5.53334 11.5333L9.06667 8L5.53334 4.46666C5.26667 4.19999 5.26667 3.79999 5.53334 3.53333C5.8 3.26666 6.2 3.26666 6.46667 3.53333L10.4667 7.53333C10.7333 7.79999 10.7333 8.2 10.4667 8.46666Z" fill="white"/>
</mask>
<g mask="url(#mask0_5790_162)">
<path fill-rule="evenodd" clip-rule="evenodd" d="M0 0H16V16H0V0Z" fill="white"/>
</g>
</svg>
