<svg width="261" height="210" viewBox="0 0 261 210" fill="none" xmlns="http://www.w3.org/2000/svg">
<path d="M27.225 2.933C27.687 5.441 27.588 8.213 25.872 12.833L23.1 20.588L22.935 20.621L16.104 2.933H15.774L9.735 20.621H9.57L3.96 2.933H0.396L8.646 26.066H9.273L15.048 8.576H15.279L22.176 26.066H22.539L27.225 13.031C28.677 9.104 29.865 6.233 31.284 2.933H27.225ZM36.5704 22.436V8.807H36.2734C34.7554 9.731 32.4124 9.83 32.4124 9.83V10.193C33.3034 10.952 33.5344 11.48 33.5344 12.569V22.436C33.5344 24.317 33.4024 25.142 32.9074 25.769V26H37.1974V25.769C36.7024 25.142 36.5704 24.317 36.5704 22.436ZM34.7884 6.167C35.8444 6.167 36.7024 5.309 36.7024 4.253C36.7024 3.197 35.8444 2.339 34.7884 2.339C33.7324 2.339 32.8744 3.197 32.8744 4.253C32.8744 5.309 33.7324 6.167 34.7884 6.167ZM49.8627 21.578L49.6647 21.545C48.7077 24.548 47.7507 25.538 46.6287 25.538C45.4737 25.538 44.3847 24.383 44.3847 21.974V10.226C45.7047 10.226 47.5857 10.688 49.9617 11.744H50.1267L50.0937 9.17H44.3517L44.3847 3.758H43.9887C43.9887 3.758 42.6027 8.18 41.4147 9.038C40.9527 9.368 38.9397 9.434 38.9397 9.434V10.193H41.3817V21.776C41.3817 24.515 43.2627 26.396 46.1337 26.396C48.5427 26.396 49.7967 25.736 50.8197 24.977L49.8627 21.578ZM67.8691 22.436V14.78C67.8691 10.688 65.9881 8.774 62.4901 8.774C59.9161 8.774 58.2991 9.797 56.5171 11.513H56.3191V0.325998H56.0221C54.5041 1.25 52.1611 1.349 52.1611 1.349V1.679C53.0521 2.438 53.2831 2.999 53.2831 4.055V22.436C53.2831 24.317 53.1511 25.142 52.6561 25.769V26.033H56.9461V25.769C56.4511 25.142 56.3191 24.317 56.3191 22.436V12.998C57.7381 11.381 59.5201 10.226 61.1701 10.226C63.7111 10.226 64.8991 12.206 64.8991 14.714V22.436C64.8991 24.317 64.7341 25.142 64.2391 25.769V26H68.5291V25.769C68.0341 25.142 67.8691 24.317 67.8691 22.436ZM87.4526 2.933H77.8166V3.329H78.1466C78.6746 3.362 79.3346 3.527 79.3346 4.121V20.72C79.3346 23.591 79.1036 25.274 78.3776 25.769V26H86.8916C94.7456 26 99.6956 21.677 99.6956 14.219C99.6956 6.893 94.7786 2.933 87.4526 2.933ZM87.4526 25.241C84.9116 25.241 83.3936 25.142 82.5686 24.944V3.692H87.1556C92.6006 3.692 96.1316 7.85 96.1316 14.384C96.1316 21.479 92.9636 25.241 87.4526 25.241ZM106.115 22.436V8.807H105.818C104.3 9.731 101.957 9.83 101.957 9.83V10.193C102.848 10.952 103.079 11.48 103.079 12.569V22.436C103.079 24.317 102.947 25.142 102.452 25.769V26H106.742V25.769C106.247 25.142 106.115 24.317 106.115 22.436ZM104.333 6.167C105.389 6.167 106.247 5.309 106.247 4.253C106.247 3.197 105.389 2.339 104.333 2.339C103.277 2.339 102.419 3.197 102.419 4.253C102.419 5.309 103.277 6.167 104.333 6.167ZM122.411 21.776V14.78C122.411 10.688 120.431 8.774 116.504 8.774C114.029 8.774 112.214 9.533 110.729 10.325L109.904 15.242L110.267 15.275C112.808 10.424 114.425 9.566 116.438 9.566C118.913 9.566 119.408 12.239 119.408 15.077V16.562C118.451 16.661 117.428 16.727 116.306 16.859C111.95 17.354 109.145 19.466 109.145 22.436C109.145 24.779 110.894 26.33 113.567 26.33C115.58 26.33 117.857 25.373 119.507 23.789C119.507 24.482 120.299 25.604 120.728 26.033H123.962V25.736C122.774 24.515 122.411 23.657 122.411 21.776ZM119.408 22.898C118.154 24.284 116.57 24.944 115.184 24.944C113.468 24.944 112.115 24.152 112.115 21.908C112.115 18.839 115.085 17.783 119.408 17.354V22.898ZM141.448 22.799V14.78C141.448 10.688 139.567 8.774 136.036 8.774C133.561 8.774 131.746 9.896 129.997 11.546H129.898V8.708H129.601C128.083 9.632 125.74 9.731 125.74 9.731V10.061C126.598 10.82 126.862 11.348 126.862 12.371V22.898C126.829 24.449 126.664 25.208 126.235 25.769V26.033H130.525V25.769C130.03 25.142 129.898 24.317 129.898 22.436V12.998C131.284 11.282 133.099 10.226 134.749 10.226C137.356 10.226 138.445 12.239 138.445 14.714V22.436C138.445 24.317 138.28 25.142 137.818 25.769V26H142.108V25.769C141.646 25.175 141.481 24.416 141.448 22.799ZM157.699 21.776V14.78C157.699 10.688 155.719 8.774 151.792 8.774C149.317 8.774 147.502 9.533 146.017 10.325L145.192 15.242L145.555 15.275C148.096 10.424 149.713 9.566 151.726 9.566C154.201 9.566 154.696 12.239 154.696 15.077V16.562C153.739 16.661 152.716 16.727 151.594 16.859C147.238 17.354 144.433 19.466 144.433 22.436C144.433 24.779 146.182 26.33 148.855 26.33C150.868 26.33 153.145 25.373 154.795 23.789C154.795 24.482 155.587 25.604 156.016 26.033H159.25V25.736C158.062 24.515 157.699 23.657 157.699 21.776ZM154.696 22.898C153.442 24.284 151.858 24.944 150.472 24.944C148.756 24.944 147.403 24.152 147.403 21.908C147.403 18.839 150.373 17.783 154.696 17.354V22.898ZM162.612 22.535C161.556 22.535 160.731 23.393 160.731 24.449C160.731 25.208 161.127 25.637 161.688 26.132C162.282 26.594 162.546 26.957 162.546 27.485C162.579 28.079 162.381 28.904 161.556 30.29L161.886 30.488C163.503 28.607 164.394 26.759 164.559 25.34C164.79 23.558 163.833 22.535 162.612 22.535ZM184.422 9.17C184.455 11.414 184.191 14.351 182.475 18.509L180.858 22.337H180.726L175.908 9.17H172.674L179.769 24.779L179.142 26.297C177.558 29.135 176.139 30.158 172.608 30.356L172.443 30.455L173.07 33.359C176.205 33.359 178.845 30.422 180.363 26.792L183.762 18.575C185.478 14.45 186.501 11.876 187.821 9.17H184.422ZM196.585 8.774C191.635 8.774 187.939 12.338 187.939 17.717C187.939 23.096 191.47 26.396 196.288 26.396C201.238 26.396 204.967 22.865 204.967 17.519C204.967 12.107 201.403 8.774 196.585 8.774ZM196.486 25.604C193.351 25.604 191.173 22.37 191.173 17.519C191.173 12.701 193.219 9.566 196.387 9.566C199.522 9.566 201.733 12.833 201.733 17.684C201.733 22.469 199.654 25.604 196.486 25.604ZM222.655 21.776V8.708H222.358C221.401 9.203 219.85 9.368 219.124 9.5V9.731C219.124 9.731 219.652 11.381 219.652 12.437V21.908C218.728 23.657 216.913 24.977 215.461 24.977C211.303 24.977 211.138 20.489 211.138 20.489V18.08H211.171V8.708H210.874C209.356 9.632 207.013 9.731 207.013 9.731V10.061C207.805 10.754 208.102 11.282 208.135 12.173V20.423C208.135 24.482 210.049 26.396 213.547 26.396C215.989 26.396 218.2 25.142 219.751 23.492L219.916 23.459C220.246 24.548 220.444 24.977 221.104 26.033H223.975V25.736C222.919 24.416 222.655 23.657 222.655 21.776ZM227.746 2.537C226.69 2.537 225.865 3.395 225.865 4.451C225.865 5.21 226.261 5.672 226.822 6.134C227.416 6.596 227.68 6.959 227.68 7.487C227.713 8.081 227.515 8.906 226.69 10.292L227.02 10.49C228.637 8.609 229.528 6.794 229.693 5.342C229.924 3.56 228.967 2.537 227.746 2.537ZM242.392 8.609C238.927 8.609 236.815 10.193 235.891 12.635L235.759 12.668L235.891 8.708H235.594C235.33 8.873 235.033 9.005 234.703 9.104L233.68 9.434C232.624 9.665 231.733 9.731 231.733 9.731V10.061C232.591 10.787 232.855 11.315 232.855 12.338V22.964C232.822 24.482 232.657 25.208 232.228 25.769V26H236.518V25.769C236.023 25.142 235.891 24.317 235.891 22.436V16.133C235.924 13.196 237.046 11.183 239.455 11.183C240.874 11.183 242.062 11.744 242.92 13.46L243.283 13.328L242.392 8.609ZM252.709 8.774C247.825 8.774 244.69 12.371 244.69 17.816C244.69 22.964 248.023 26.33 252.775 26.33C255.481 26.33 257.758 25.076 259.375 23.921L258.583 19.829H258.352C257.164 23.591 255.217 25.274 253.039 25.274C250.465 25.274 247.99 22.931 247.99 17.321V16.628C247.99 16.628 256.966 16.628 259.672 16.628C259.87 16.628 260.002 16.331 260.002 16.199C260.002 12.635 257.263 8.774 252.709 8.774ZM257.164 15.869H248.023C248.353 12.239 250.168 9.566 252.94 9.566C255.613 9.566 257.362 12.107 257.164 15.869ZM5.214 66.436V52.807H4.917C3.399 53.731 1.056 53.83 1.056 53.83V54.193C1.947 54.952 2.178 55.48 2.178 56.569V66.436C2.178 68.317 2.046 69.142 1.551 69.769V70H5.841V69.769C5.346 69.142 5.214 68.317 5.214 66.436ZM3.432 50.167C4.488 50.167 5.346 49.309 5.346 48.253C5.346 47.197 4.488 46.339 3.432 46.339C2.376 46.339 1.518 47.197 1.518 48.253C1.518 49.309 2.376 50.167 3.432 50.167ZM23.8853 66.799V58.78C23.8853 54.688 22.0043 52.774 18.4733 52.774C15.9983 52.774 14.1833 53.896 12.4343 55.546H12.3353V52.708H12.0383C10.5203 53.632 8.1773 53.731 8.1773 53.731V54.061C9.0353 54.82 9.2993 55.348 9.2993 56.371V66.898C9.2663 68.449 9.1013 69.208 8.6723 69.769V70.033H12.9623V69.769C12.4673 69.142 12.3353 68.317 12.3353 66.436V56.998C13.7213 55.282 15.5363 54.226 17.1863 54.226C19.7933 54.226 20.8823 56.239 20.8823 58.714V66.436C20.8823 68.317 20.7173 69.142 20.2553 69.769V70H24.5453V69.769C24.0833 69.175 23.9183 68.416 23.8853 66.799ZM48.3465 63.829H48.1155C46.6635 67.888 44.8815 69.274 42.5715 69.274C39.9645 69.274 37.2915 66.601 37.2915 61.057C37.2915 56.305 39.4365 53.566 42.4725 53.566C45.1785 53.566 47.3235 55.15 48.5115 58.45H48.6765L48.7095 54.787C47.6865 53.797 45.5085 52.774 42.5385 52.774C37.9515 52.774 34.0245 56.371 34.0245 61.75C34.0245 66.997 37.5885 70.396 42.3405 70.396C45.9375 70.396 47.9505 68.614 49.2375 67.327L48.3465 63.829ZM60.0084 52.774C55.0584 52.774 51.3624 56.338 51.3624 61.717C51.3624 67.096 54.8934 70.396 59.7114 70.396C64.6614 70.396 68.3904 66.865 68.3904 61.519C68.3904 56.107 64.8264 52.774 60.0084 52.774ZM59.9094 69.604C56.7744 69.604 54.5964 66.37 54.5964 61.519C54.5964 56.701 56.6424 53.566 59.8104 53.566C62.9454 53.566 65.1564 56.833 65.1564 61.684C65.1564 66.469 63.0774 69.604 59.9094 69.604ZM86.2437 66.799V58.78C86.2437 54.688 84.3627 52.774 80.8317 52.774C78.3567 52.774 76.5417 53.896 74.7927 55.546H74.6937V52.708H74.3967C72.8787 53.632 70.5357 53.731 70.5357 53.731V54.061C71.3937 54.82 71.6577 55.348 71.6577 56.371V66.898C71.6247 68.449 71.4597 69.208 71.0307 69.769V70.033H75.3207V69.769C74.8257 69.142 74.6937 68.317 74.6937 66.436V56.998C76.0797 55.282 77.8947 54.226 79.5447 54.226C82.1517 54.226 83.2407 56.239 83.2407 58.714V66.436C83.2407 68.317 83.0757 69.142 82.6137 69.769V70H86.9037V69.769C86.4417 69.175 86.2767 68.416 86.2437 66.799ZM99.1372 65.578L98.9392 65.545C97.9822 68.548 97.0252 69.538 95.9032 69.538C94.7482 69.538 93.6592 68.383 93.6592 65.974V54.226C94.9792 54.226 96.8602 54.688 99.2362 55.744H99.4012L99.3682 53.17H93.6262L93.6592 47.758H93.2632C93.2632 47.758 91.8772 52.18 90.6892 53.038C90.2272 53.368 88.2142 53.434 88.2142 53.434V54.193H90.6562V65.776C90.6562 68.515 92.5372 70.396 95.4082 70.396C97.8172 70.396 99.0712 69.736 100.094 68.977L99.1372 65.578ZM112.326 52.609C108.861 52.609 106.749 54.193 105.825 56.635L105.693 56.668L105.825 52.708H105.528C105.264 52.873 104.967 53.005 104.637 53.104L103.614 53.434C102.558 53.665 101.667 53.731 101.667 53.731V54.061C102.525 54.787 102.789 55.315 102.789 56.338V66.964C102.756 68.482 102.591 69.208 102.162 69.769V70H106.452V69.769C105.957 69.142 105.825 68.317 105.825 66.436V60.133C105.858 57.196 106.98 55.183 109.389 55.183C110.808 55.183 111.996 55.744 112.854 57.46L113.217 57.328L112.326 52.609ZM123.237 52.774C118.287 52.774 114.591 56.338 114.591 61.717C114.591 67.096 118.122 70.396 122.94 70.396C127.89 70.396 131.619 66.865 131.619 61.519C131.619 56.107 128.055 52.774 123.237 52.774ZM123.138 69.604C120.003 69.604 117.825 66.37 117.825 61.519C117.825 56.701 119.871 53.566 123.039 53.566C126.174 53.566 128.385 56.833 128.385 61.684C128.385 66.469 126.306 69.604 123.138 69.604ZM137.691 66.436V44.326H137.394C135.876 45.25 133.533 45.349 133.533 45.349V45.679C134.424 46.438 134.655 46.999 134.655 48.055V66.469C134.655 68.317 134.523 69.142 134.028 69.769V70H138.318V69.769C137.823 69.142 137.691 68.317 137.691 66.436ZM156.527 52.774C151.577 52.774 147.881 56.338 147.881 61.717C147.881 67.096 151.412 70.396 156.23 70.396C161.18 70.396 164.909 66.865 164.909 61.519C164.909 56.107 161.345 52.774 156.527 52.774ZM156.428 69.604C153.293 69.604 151.115 66.37 151.115 61.519C151.115 56.701 153.161 53.566 156.329 53.566C159.464 53.566 161.675 56.833 161.675 61.684C161.675 66.469 159.596 69.604 156.428 69.604ZM173.897 44.656C170.597 44.656 168.452 46.24 168.452 50.2V53.17H166.01V53.962H168.452V66.436C168.452 68.317 168.287 69.142 167.792 69.769V70H172.082V69.769C171.62 69.175 171.455 68.383 171.455 66.7V53.962H176.075V53.17H171.455V50.035C171.455 46.768 172.115 45.283 173.963 45.283C175.019 45.283 175.943 45.778 177.131 48.814H177.329L178.814 45.778C177.032 44.887 175.547 44.656 173.897 44.656ZM195.347 53.17C195.38 55.414 195.116 58.351 193.4 62.509L191.783 66.337H191.651L186.833 53.17H183.599L190.694 68.779L190.067 70.297C188.483 73.135 187.064 74.158 183.533 74.356L183.368 74.455L183.995 77.359C187.13 77.359 189.77 74.422 191.288 70.792L194.687 62.575C196.403 58.45 197.426 55.876 198.746 53.17H195.347ZM207.509 52.774C202.559 52.774 198.863 56.338 198.863 61.717C198.863 67.096 202.394 70.396 207.212 70.396C212.162 70.396 215.891 66.865 215.891 61.519C215.891 56.107 212.327 52.774 207.509 52.774ZM207.41 69.604C204.275 69.604 202.097 66.37 202.097 61.519C202.097 56.701 204.143 53.566 207.311 53.566C210.446 53.566 212.657 56.833 212.657 61.684C212.657 66.469 210.578 69.604 207.41 69.604ZM233.58 65.776V52.708H233.283C232.326 53.203 230.775 53.368 230.049 53.5V53.731C230.049 53.731 230.577 55.381 230.577 56.437V65.908C229.653 67.657 227.838 68.977 226.386 68.977C222.228 68.977 222.063 64.489 222.063 64.489V62.08H222.096V52.708H221.799C220.281 53.632 217.938 53.731 217.938 53.731V54.061C218.73 54.754 219.027 55.282 219.06 56.173V64.423C219.06 68.482 220.974 70.396 224.472 70.396C226.914 70.396 229.125 69.142 230.676 67.492L230.841 67.459C231.171 68.548 231.369 68.977 232.029 70.033H234.9V69.736C233.844 68.416 233.58 67.657 233.58 65.776ZM247.548 52.609C244.083 52.609 241.971 54.193 241.047 56.635L240.915 56.668L241.047 52.708H240.75C240.486 52.873 240.189 53.005 239.859 53.104L238.836 53.434C237.78 53.665 236.889 53.731 236.889 53.731V54.061C237.747 54.787 238.011 55.315 238.011 56.338V66.964C237.978 68.482 237.813 69.208 237.384 69.769V70H241.674V69.769C241.179 69.142 241.047 68.317 241.047 66.436V60.133C241.08 57.196 242.202 55.183 244.611 55.183C246.03 55.183 247.218 55.744 248.076 57.46L248.439 57.328L247.548 52.609ZM16.5 110.436V102.78C16.5 98.688 14.619 96.774 11.121 96.774C8.547 96.774 6.93 97.797 5.148 99.513H4.95V88.326H4.653C3.135 89.25 0.792 89.349 0.792 89.349V89.679C1.683 90.438 1.914 90.999 1.914 92.055V110.436C1.914 112.317 1.782 113.142 1.287 113.769V114.033H5.577V113.769C5.082 113.142 4.95 112.317 4.95 110.436V100.998C6.369 99.381 8.151 98.226 9.801 98.226C12.342 98.226 13.53 100.206 13.53 102.714V110.436C13.53 112.317 13.365 113.142 12.87 113.769V114H17.16V113.769C16.665 113.142 16.5 112.317 16.5 110.436ZM27.5101 96.774C22.6261 96.774 19.4911 100.371 19.4911 105.816C19.4911 110.964 22.8241 114.33 27.5761 114.33C30.2821 114.33 32.5591 113.076 34.1761 111.921L33.3841 107.829H33.1531C31.9651 111.591 30.0181 113.274 27.8401 113.274C25.2661 113.274 22.7911 110.931 22.7911 105.321V104.628C22.7911 104.628 31.7671 104.628 34.4731 104.628C34.6711 104.628 34.8031 104.331 34.8031 104.199C34.8031 100.635 32.0641 96.774 27.5101 96.774ZM31.9651 103.869H22.8241C23.1541 100.239 24.9691 97.566 27.7411 97.566C30.4141 97.566 32.1631 100.107 31.9651 103.869ZM50.2232 109.776V102.78C50.2232 98.688 48.2432 96.774 44.3162 96.774C41.8412 96.774 40.0262 97.533 38.5412 98.325L37.7162 103.242L38.0792 103.275C40.6202 98.424 42.2372 97.566 44.2502 97.566C46.7252 97.566 47.2202 100.239 47.2202 103.077V104.562C46.2632 104.661 45.2402 104.727 44.1182 104.859C39.7622 105.354 36.9572 107.466 36.9572 110.436C36.9572 112.779 38.7062 114.33 41.3792 114.33C43.3922 114.33 45.6692 113.373 47.3192 111.789C47.3192 112.482 48.1112 113.604 48.5402 114.033H51.7742V113.736C50.5862 112.515 50.2232 111.657 50.2232 109.776ZM47.2202 110.898C45.9662 112.284 44.3822 112.944 42.9962 112.944C41.2802 112.944 39.9272 112.152 39.9272 109.908C39.9272 106.839 42.8972 105.783 47.2202 105.354V110.898ZM57.4793 110.436V88.326H57.1823C55.6643 89.25 53.3213 89.349 53.3213 89.349V89.679C54.2123 90.438 54.4433 90.999 54.4433 92.055V110.469C54.4433 112.317 54.3113 113.142 53.8163 113.769V114H58.1063V113.769C57.6113 113.142 57.4793 112.317 57.4793 110.436ZM70.7778 109.578L70.5798 109.545C69.6228 112.548 68.6658 113.538 67.5438 113.538C66.3888 113.538 65.2998 112.383 65.2998 109.974V98.226C66.6198 98.226 68.5008 98.688 70.8768 99.744H71.0418L71.0088 97.17H65.2668L65.2998 91.758H64.9038C64.9038 91.758 63.5178 96.18 62.3298 97.038C61.8678 97.368 59.8548 97.434 59.8548 97.434V98.193H62.2968V109.776C62.2968 112.515 64.1778 114.396 67.0488 114.396C69.4578 114.396 70.7118 113.736 71.7348 112.977L70.7778 109.578ZM88.7842 110.436V102.78C88.7842 98.688 86.9032 96.774 83.4052 96.774C80.8312 96.774 79.2142 97.797 77.4322 99.513H77.2342V88.326H76.9372C75.4192 89.25 73.0762 89.349 73.0762 89.349V89.679C73.9672 90.438 74.1982 90.999 74.1982 92.055V110.436C74.1982 112.317 74.0662 113.142 73.5712 113.769V114.033H77.8612V113.769C77.3662 113.142 77.2342 112.317 77.2342 110.436V100.998C78.6532 99.381 80.4352 98.226 82.0852 98.226C84.6262 98.226 85.8142 100.206 85.8142 102.714V110.436C85.8142 112.317 85.6492 113.142 85.1542 113.769V114H89.4442V113.769C88.9492 113.142 88.7842 112.317 88.7842 110.436ZM93.2603 110.535C92.2043 110.535 91.3793 111.393 91.3793 112.449C91.3793 113.208 91.7753 113.637 92.3363 114.132C92.9303 114.594 93.1943 114.957 93.1943 115.485C93.2273 116.079 93.0293 116.904 92.2043 118.29L92.5343 118.488C94.1513 116.607 95.0423 114.759 95.2073 113.34C95.4383 111.558 94.4813 110.535 93.2603 110.535ZM115.07 97.17C115.103 99.414 114.839 102.351 113.123 106.509L111.506 110.337H111.374L106.556 97.17H103.322L110.417 112.779L109.79 114.297C108.206 117.135 106.787 118.158 103.256 118.356L103.091 118.455L103.718 121.359C106.853 121.359 109.493 118.422 111.011 114.792L114.41 106.575C116.126 102.45 117.149 99.876 118.469 97.17H115.07ZM127.233 96.774C122.283 96.774 118.587 100.338 118.587 105.717C118.587 111.096 122.118 114.396 126.936 114.396C131.886 114.396 135.615 110.865 135.615 105.519C135.615 100.107 132.051 96.774 127.233 96.774ZM127.134 113.604C123.999 113.604 121.821 110.37 121.821 105.519C121.821 100.701 123.867 97.566 127.035 97.566C130.17 97.566 132.381 100.833 132.381 105.684C132.381 110.469 130.302 113.604 127.134 113.604ZM153.303 109.776V96.708H153.006C152.049 97.203 150.498 97.368 149.772 97.5V97.731C149.772 97.731 150.3 99.381 150.3 100.437V109.908C149.376 111.657 147.561 112.977 146.109 112.977C141.951 112.977 141.786 108.489 141.786 108.489V106.08H141.819V96.708H141.522C140.004 97.632 137.661 97.731 137.661 97.731V98.061C138.453 98.754 138.75 99.282 138.783 100.173V108.423C138.783 112.482 140.697 114.396 144.195 114.396C146.637 114.396 148.848 113.142 150.399 111.492L150.564 111.459C150.894 112.548 151.092 112.977 151.752 114.033H154.623V113.736C153.567 112.416 153.303 111.657 153.303 109.776ZM167.272 96.609C163.807 96.609 161.695 98.193 160.771 100.635L160.639 100.668L160.771 96.708H160.474C160.21 96.873 159.913 97.005 159.583 97.104L158.56 97.434C157.504 97.665 156.613 97.731 156.613 97.731V98.061C157.471 98.787 157.735 99.315 157.735 100.338V110.964C157.702 112.482 157.537 113.208 157.108 113.769V114H161.398V113.769C160.903 113.142 160.771 112.317 160.771 110.436V104.133C160.804 101.196 161.926 99.183 164.335 99.183C165.754 99.183 166.942 99.744 167.8 101.46L168.163 101.328L167.272 96.609ZM184.969 96.774C180.085 96.774 176.95 100.371 176.95 105.816C176.95 110.964 180.283 114.33 185.035 114.33C187.741 114.33 190.018 113.076 191.635 111.921L190.843 107.829H190.612C189.424 111.591 187.477 113.274 185.299 113.274C182.725 113.274 180.25 110.931 180.25 105.321V104.628C180.25 104.628 189.226 104.628 191.932 104.628C192.13 104.628 192.262 104.331 192.262 104.199C192.262 100.635 189.523 96.774 184.969 96.774ZM189.424 103.869H180.283C180.613 100.239 182.428 97.566 185.2 97.566C187.873 97.566 189.622 100.107 189.424 103.869ZM204.755 97.17C204.59 99.711 204.161 102.384 202.808 106.74C202.544 107.499 201.851 109.38 201.851 109.38H201.686L196.373 97.17H193.139L200.96 114H201.191L208.451 97.17H204.755ZM216.68 96.774C211.796 96.774 208.661 100.371 208.661 105.816C208.661 110.964 211.994 114.33 216.746 114.33C219.452 114.33 221.729 113.076 223.346 111.921L222.554 107.829H222.323C221.135 111.591 219.188 113.274 217.01 113.274C214.436 113.274 211.961 110.931 211.961 105.321V104.628C211.961 104.628 220.937 104.628 223.643 104.628C223.841 104.628 223.973 104.331 223.973 104.199C223.973 100.635 221.234 96.774 216.68 96.774ZM221.135 103.869H211.994C212.324 100.239 214.139 97.566 216.911 97.566C219.584 97.566 221.333 100.107 221.135 103.869ZM236.72 96.609C233.255 96.609 231.143 98.193 230.219 100.635L230.087 100.668L230.219 96.708H229.922C229.658 96.873 229.361 97.005 229.031 97.104L228.008 97.434C226.952 97.665 226.061 97.731 226.061 97.731V98.061C226.919 98.787 227.183 99.315 227.183 100.338V110.964C227.15 112.482 226.985 113.208 226.556 113.769V114H230.846V113.769C230.351 113.142 230.219 112.317 230.219 110.436V104.133C230.252 101.196 231.374 99.183 233.783 99.183C235.202 99.183 236.39 99.744 237.248 101.46L237.611 101.328L236.72 96.609ZM250.035 97.17C250.068 99.414 249.804 102.351 248.088 106.509L246.471 110.337H246.339L241.521 97.17H238.287L245.382 112.779L244.755 114.297C243.171 117.135 241.752 118.158 238.221 118.356L238.056 118.455L238.683 121.359C241.818 121.359 244.458 118.422 245.976 114.792L249.375 106.575C251.091 102.45 252.114 99.876 253.434 97.17H250.035ZM16.929 153.149V132.326H16.632C15.147 133.25 12.771 133.349 12.771 133.349V133.679C13.662 134.438 13.926 134.999 13.926 136.055V142.523C12.672 141.434 11.088 140.774 9.273 140.774C4.818 140.774 1.089 144.47 1.089 149.882C1.089 154.865 4.191 158.396 8.316 158.396C10.527 158.396 12.54 157.307 14.091 155.624C14.256 156.482 14.619 157.241 15.114 158.033H18.348V157.736C17.292 155.822 16.929 155.03 16.929 153.149ZM9.24 157.274C6.336 157.274 4.323 154.733 4.323 149.585C4.323 144.47 6.435 141.764 9.57 141.764C11.517 141.764 13.497 142.853 13.926 144.734V154.535C12.375 156.152 10.824 157.274 9.24 157.274ZM33.6265 153.776V146.78C33.6265 142.688 31.6465 140.774 27.7195 140.774C25.2445 140.774 23.4295 141.533 21.9445 142.325L21.1195 147.242L21.4825 147.275C24.0235 142.424 25.6405 141.566 27.6535 141.566C30.1285 141.566 30.6235 144.239 30.6235 147.077V148.562C29.6665 148.661 28.6435 148.727 27.5215 148.859C23.1655 149.354 20.3605 151.466 20.3605 154.436C20.3605 156.779 22.1095 158.33 24.7825 158.33C26.7955 158.33 29.0725 157.373 30.7225 155.789C30.7225 156.482 31.5145 157.604 31.9435 158.033H35.1775V157.736C33.9895 156.515 33.6265 155.657 33.6265 153.776ZM30.6235 154.898C29.3695 156.284 27.7855 156.944 26.3995 156.944C24.6835 156.944 23.3305 156.152 23.3305 153.908C23.3305 150.839 26.3005 149.783 30.6235 149.354V154.898ZM46.9755 141.17C47.0085 143.414 46.7445 146.351 45.0285 150.509L43.4115 154.337H43.2795L38.4615 141.17H35.2275L42.3225 156.779L41.6955 158.297C40.1115 161.135 38.6925 162.158 35.1615 162.356L34.9965 162.455L35.6235 165.359C38.7585 165.359 41.3985 162.422 42.9165 158.792L46.3155 150.575C48.0315 146.45 49.0545 143.876 50.3745 141.17H46.9755ZM53.2672 154.535C52.2112 154.535 51.3862 155.393 51.3862 156.449C51.3862 157.208 51.7822 157.637 52.3432 158.132C52.9372 158.594 53.2012 158.957 53.2012 159.485C53.2342 160.079 53.0362 160.904 52.2112 162.29L52.5412 162.488C54.1582 160.607 55.0492 158.759 55.2142 157.34C55.4452 155.558 54.4882 154.535 53.2672 154.535ZM77.5191 153.776V146.78C77.5191 142.688 75.5391 140.774 71.6121 140.774C69.1371 140.774 67.3221 141.533 65.8371 142.325L65.0121 147.242L65.3751 147.275C67.9161 142.424 69.5331 141.566 71.5461 141.566C74.0211 141.566 74.5161 144.239 74.5161 147.077V148.562C73.5591 148.661 72.5361 148.727 71.4141 148.859C67.0581 149.354 64.2531 151.466 64.2531 154.436C64.2531 156.779 66.0021 158.33 68.6751 158.33C70.6881 158.33 72.9651 157.373 74.6151 155.789C74.6151 156.482 75.4071 157.604 75.8361 158.033H79.0701V157.736C77.8821 156.515 77.5191 155.657 77.5191 153.776ZM74.5161 154.898C73.2621 156.284 71.6781 156.944 70.2921 156.944C68.5761 156.944 67.2231 156.152 67.2231 153.908C67.2231 150.839 70.1931 149.783 74.5161 149.354V154.898ZM96.5562 154.799V146.78C96.5562 142.688 94.6752 140.774 91.1442 140.774C88.6692 140.774 86.8542 141.896 85.1052 143.546H85.0062V140.708H84.7092C83.1912 141.632 80.8482 141.731 80.8482 141.731V142.061C81.7062 142.82 81.9702 143.348 81.9702 144.371V154.898C81.9372 156.449 81.7722 157.208 81.3432 157.769V158.033H85.6332V157.769C85.1382 157.142 85.0062 156.317 85.0062 154.436V144.998C86.3922 143.282 88.2072 142.226 89.8572 142.226C92.4642 142.226 93.5532 144.239 93.5532 146.714V154.436C93.5532 156.317 93.3882 157.142 92.9262 157.769V158H97.2162V157.769C96.7542 157.175 96.5892 156.416 96.5562 154.799ZM115.381 153.149V132.326H115.084C113.599 133.25 111.223 133.349 111.223 133.349V133.679C112.114 134.438 112.378 134.999 112.378 136.055V142.523C111.124 141.434 109.54 140.774 107.725 140.774C103.27 140.774 99.5411 144.47 99.5411 149.882C99.5411 154.865 102.643 158.396 106.768 158.396C108.979 158.396 110.992 157.307 112.543 155.624C112.708 156.482 113.071 157.241 113.566 158.033H116.8V157.736C115.744 155.822 115.381 155.03 115.381 153.149ZM107.692 157.274C104.788 157.274 102.775 154.733 102.775 149.585C102.775 144.47 104.887 141.764 108.022 141.764C109.969 141.764 111.949 142.853 112.378 144.734V154.535C110.827 156.152 109.276 157.274 107.692 157.274ZM136.791 141.17C136.824 143.414 136.56 146.351 134.844 150.509L133.227 154.337H133.095L128.277 141.17H125.043L132.138 156.779L131.511 158.297C129.927 161.135 128.508 162.158 124.977 162.356L124.812 162.455L125.439 165.359C128.574 165.359 131.214 162.422 132.732 158.792L136.131 150.575C137.847 146.45 138.87 143.876 140.19 141.17H136.791ZM148.954 140.774C144.004 140.774 140.308 144.338 140.308 149.717C140.308 155.096 143.839 158.396 148.657 158.396C153.607 158.396 157.336 154.865 157.336 149.519C157.336 144.107 153.772 140.774 148.954 140.774ZM148.855 157.604C145.72 157.604 143.542 154.37 143.542 149.519C143.542 144.701 145.588 141.566 148.756 141.566C151.891 141.566 154.102 144.833 154.102 149.684C154.102 154.469 152.023 157.604 148.855 157.604ZM175.024 153.776V140.708H174.727C173.77 141.203 172.219 141.368 171.493 141.5V141.731C171.493 141.731 172.021 143.381 172.021 144.437V153.908C171.097 155.657 169.282 156.977 167.83 156.977C163.672 156.977 163.507 152.489 163.507 152.489V150.08H163.54V140.708H163.243C161.725 141.632 159.382 141.731 159.382 141.731V142.061C160.174 142.754 160.471 143.282 160.504 144.173V152.423C160.504 156.482 162.418 158.396 165.916 158.396C168.358 158.396 170.569 157.142 172.12 155.492L172.285 155.459C172.615 156.548 172.813 156.977 173.473 158.033H176.344V157.736C175.288 156.416 175.024 155.657 175.024 153.776ZM188.993 140.609C185.528 140.609 183.416 142.193 182.492 144.635L182.36 144.668L182.492 140.708H182.195C181.931 140.873 181.634 141.005 181.304 141.104L180.281 141.434C179.225 141.665 178.334 141.731 178.334 141.731V142.061C179.192 142.787 179.456 143.315 179.456 144.338V154.964C179.423 156.482 179.258 157.208 178.829 157.769V158H183.119V157.769C182.624 157.142 182.492 156.317 182.492 154.436V148.133C182.525 145.196 183.647 143.183 186.056 143.183C187.475 143.183 188.663 143.744 189.521 145.46L189.884 145.328L188.993 140.609ZM9.24 192.397L7.854 191.869C5.94 191.11 3.96 190.12 3.96 188.107C3.96 186.556 5.676 185.566 7.623 185.566C10.065 185.566 11.748 186.787 13.926 190.45H14.256L13.926 186.622C12.078 185.368 10.362 184.774 7.953 184.774C4.026 184.774 1.551 186.754 1.551 189.427C1.551 192.43 4.587 193.618 6.831 194.509L8.25 195.037C10.428 195.862 12.177 196.39 12.21 198.403C12.243 199.954 10.989 201.637 8.613 201.637C6.369 201.637 3.729 200.152 2.145 196.258H1.848L1.32 200.317C2.739 201.406 4.818 202.396 8.184 202.396C12.606 202.396 14.718 200.284 14.718 197.38C14.718 194.245 11.385 193.222 9.24 192.397ZM26.9819 197.578L26.7839 197.545C25.8269 200.548 24.8699 201.538 23.7479 201.538C22.5929 201.538 21.5039 200.383 21.5039 197.974V186.226C22.8239 186.226 24.7049 186.688 27.0809 187.744H27.2459L27.2129 185.17H21.4709L21.5039 179.758H21.1079C21.1079 179.758 19.7219 184.18 18.5339 185.038C18.0719 185.368 16.0589 185.434 16.0589 185.434V186.193H18.5009V197.776C18.5009 200.515 20.3819 202.396 23.2529 202.396C25.6619 202.396 26.9159 201.736 27.9389 200.977L26.9819 197.578ZM37.4821 184.774C32.5321 184.774 28.8361 188.338 28.8361 193.717C28.8361 199.096 32.3671 202.396 37.1851 202.396C42.1351 202.396 45.8641 198.865 45.8641 193.519C45.8641 188.107 42.3001 184.774 37.4821 184.774ZM37.3831 201.604C34.2481 201.604 32.0701 198.37 32.0701 193.519C32.0701 188.701 34.1161 185.566 37.2841 185.566C40.4191 185.566 42.6301 188.833 42.6301 193.684C42.6301 198.469 40.5511 201.604 37.3831 201.604ZM58.6683 184.609C55.2033 184.609 53.0913 186.193 52.1673 188.635L52.0353 188.668L52.1673 184.708H51.8703C51.6063 184.873 51.3093 185.005 50.9793 185.104L49.9563 185.434C48.9003 185.665 48.0093 185.731 48.0093 185.731V186.061C48.8673 186.787 49.1313 187.315 49.1313 188.338V198.964C49.0983 200.482 48.9333 201.208 48.5043 201.769V202H52.7943V201.769C52.2993 201.142 52.1673 200.317 52.1673 198.436V192.133C52.2003 189.196 53.3223 187.183 55.7313 187.183C57.1503 187.183 58.3383 187.744 59.1963 189.46L59.5593 189.328L58.6683 184.609ZM71.9833 185.17C72.0163 187.414 71.7523 190.351 70.0363 194.509L68.4193 198.337H68.2873L63.4693 185.17H60.2353L67.3303 200.779L66.7033 202.297C65.1193 205.135 63.7003 206.158 60.1693 206.356L60.0043 206.455L60.6313 209.359C63.7663 209.359 66.4063 206.422 67.9243 202.792L71.3233 194.575C73.0393 190.45 74.0623 187.876 75.3823 185.17H71.9833ZM79.364 202.33C80.42 202.33 81.278 201.472 81.278 200.449C81.278 199.393 80.42 198.535 79.364 198.535C78.308 198.535 77.483 199.393 77.483 200.449C77.483 201.472 78.308 202.33 79.364 202.33Z" fill="black" fill-opacity="0.8"/>
</svg>
