<svg width="259" height="76" viewBox="0 0 259 76" fill="none" xmlns="http://www.w3.org/2000/svg">
<path d="M12.224 12.328L10.304 11.624C7.232 10.504 4.352 9.32 4.352 6.664C4.352 4.52 6.432 3.016 9.984 3.016C13.152 3.016 16.416 5.512 17.92 9.768H18.144L17.632 3.464C15.584 2.632 13.472 2.248 10.336 2.248C5.024 2.248 1.536 4.776 1.536 8.168C1.536 11.816 5.568 13.416 8.576 14.536L10.496 15.208C13.344 16.232 16.576 17.64 16.576 19.88C16.544 22.408 13.856 24.392 10.656 24.392C6.464 24.392 3.264 20.552 2.24 14.632H1.728L1.312 21.832C3.168 24.04 7.072 25.384 10.336 25.384C15.936 25.384 19.392 22.664 19.392 18.92C19.392 15.112 15.68 13.64 12.224 12.328ZM36.375 21.544V14.12C36.375 10.152 34.551 8.296 31.159 8.296C28.663 8.296 27.095 9.288 25.367 10.952H25.175V0.103998H24.887C23.415 0.999998 21.143 1.096 21.143 1.096V1.416C22.007 2.152 22.231 2.696 22.231 3.72V21.544C22.231 23.368 22.103 24.168 21.623 24.776V25.032H25.783V24.776C25.303 24.168 25.175 23.368 25.175 21.544V12.392C26.551 10.824 28.279 9.704 29.879 9.704C32.343 9.704 33.495 11.624 33.495 14.056V21.544C33.495 23.368 33.335 24.168 32.855 24.776V25H37.015V24.776C36.535 24.168 36.375 23.368 36.375 21.544ZM47.6275 8.296C42.8275 8.296 39.2435 11.752 39.2435 16.968C39.2435 22.184 42.6675 25.384 47.3395 25.384C52.1395 25.384 55.7555 21.96 55.7555 16.776C55.7555 11.528 52.2995 8.296 47.6275 8.296ZM47.5315 24.616C44.4915 24.616 42.3795 21.48 42.3795 16.776C42.3795 12.104 44.3635 9.064 47.4355 9.064C50.4755 9.064 52.6195 12.232 52.6195 16.936C52.6195 21.576 50.6035 24.616 47.5315 24.616ZM67.2758 8.296C65.1318 8.296 63.4358 9.384 61.9318 10.984H61.8358V9.544V8.232H61.5477C60.0758 9.128 57.8038 9.224 57.8038 9.224V9.544C58.6678 10.28 58.8918 10.824 58.8918 11.848V32.52H59.1798C60.1398 32.04 61.6118 31.88 62.3158 31.72L62.3478 31.528C62.3478 31.528 61.8358 29.928 61.8358 28.904V23.688C63.0198 24.776 64.5558 25.384 66.3478 25.384C70.6358 25.384 74.6678 21.832 74.6678 16.584C74.6678 11.72 71.2758 8.296 67.2758 8.296ZM66.0598 24.36C64.1718 24.36 62.6038 23.176 61.8358 21.32V12.392C63.1798 10.856 64.8438 9.736 66.3798 9.736C69.1318 9.736 71.5318 12.008 71.5318 16.872C71.5318 21.672 69.0678 24.36 66.0598 24.36ZM92.0963 8.296C87.2963 8.296 83.7122 11.752 83.7122 16.968C83.7122 22.184 87.1363 25.384 91.8083 25.384C96.6083 25.384 100.224 21.96 100.224 16.776C100.224 11.528 96.7683 8.296 92.0963 8.296ZM92.0003 24.616C88.9603 24.616 86.8483 21.48 86.8483 16.776C86.8483 12.104 88.8323 9.064 91.9043 9.064C94.9443 9.064 97.0883 12.232 97.0883 16.936C97.0883 21.576 95.0723 24.616 92.0003 24.616ZM117.377 20.904V8.232H117.089C116.161 8.712 114.657 8.872 113.953 9V9.224C113.953 9.224 114.465 10.824 114.465 11.848V21.032C113.569 22.728 111.809 24.008 110.401 24.008C106.369 24.008 106.209 19.656 106.209 19.656V17.32H106.241V8.232H105.953C104.481 9.128 102.209 9.224 102.209 9.224V9.544C102.977 10.216 103.265 10.728 103.297 11.592V19.592C103.297 23.528 105.153 25.384 108.545 25.384C110.913 25.384 113.057 24.168 114.561 22.568L114.721 22.536C115.041 23.592 115.233 24.008 115.873 25.032H118.657V24.744C117.633 23.464 117.377 22.728 117.377 20.904ZM130.922 8.136C127.562 8.136 125.514 9.672 124.618 12.04L124.49 12.072L124.618 8.232H124.33C124.074 8.392 123.786 8.52 123.466 8.616L122.474 8.936C121.45 9.16 120.586 9.224 120.586 9.224V9.544C121.418 10.248 121.674 10.76 121.674 11.752V22.056C121.642 23.528 121.482 24.232 121.066 24.776V25H125.226V24.776C124.746 24.168 124.618 23.368 124.618 21.544V15.432C124.65 12.584 125.738 10.632 128.074 10.632C129.45 10.632 130.602 11.176 131.434 12.84L131.786 12.712L130.922 8.136ZM148.179 15.688L146.835 15.176C144.979 14.44 143.059 13.48 143.059 11.528C143.059 10.024 144.723 9.064 146.611 9.064C148.979 9.064 150.611 10.248 152.723 13.8H153.043L152.723 10.088C150.931 8.872 149.267 8.296 146.931 8.296C143.123 8.296 140.723 10.216 140.723 12.808C140.723 15.72 143.667 16.872 145.843 17.736L147.219 18.248C149.331 19.048 151.027 19.56 151.059 21.512C151.091 23.016 149.875 24.648 147.571 24.648C145.395 24.648 142.835 23.208 141.299 19.432H141.011L140.499 23.368C141.875 24.424 143.891 25.384 147.155 25.384C151.443 25.384 153.491 23.336 153.491 20.52C153.491 17.48 150.259 16.488 148.179 15.688ZM163.552 8.296C158.816 8.296 155.776 11.784 155.776 17.064C155.776 22.056 159.008 25.32 163.616 25.32C166.24 25.32 168.448 24.104 170.016 22.984L169.248 19.016H169.024C167.872 22.664 165.984 24.296 163.872 24.296C161.376 24.296 158.976 22.024 158.976 16.584V15.912C158.976 15.912 167.68 15.912 170.304 15.912C170.496 15.912 170.624 15.624 170.624 15.496C170.624 12.04 167.968 8.296 163.552 8.296ZM167.872 15.176H159.008C159.328 11.656 161.088 9.064 163.776 9.064C166.368 9.064 168.064 11.528 167.872 15.176ZM176.456 21.544V0.103998H176.168C174.696 0.999998 172.424 1.096 172.424 1.096V1.416C173.288 2.152 173.512 2.696 173.512 3.72V21.576C173.512 23.368 173.384 24.168 172.904 24.776V25H177.064V24.776C176.584 24.168 176.456 23.368 176.456 21.544ZM186.44 0.424C183.24 0.424 181.16 1.96 181.16 5.8V8.68H178.792V9.448H181.16V21.544C181.16 23.368 181 24.168 180.52 24.776V25H184.68V24.776C184.232 24.2 184.072 23.432 184.072 21.8V9.448H188.552V8.68H184.072V5.64C184.072 2.472 184.712 1.032 186.504 1.032C187.528 1.032 188.424 1.512 189.576 4.456H189.768L191.208 1.512C189.48 0.647999 188.04 0.424 186.44 0.424ZM186.983 15.016V17.224C189.031 16.936 193.767 17 196.007 17.224V15.016C193.255 15.176 189.511 15.176 186.983 15.016ZM211.6 19.016H211.376C209.968 22.952 208.24 24.296 206 24.296C203.472 24.296 200.88 21.704 200.88 16.328C200.88 11.72 202.96 9.064 205.904 9.064C208.528 9.064 210.608 10.6 211.76 13.8H211.92L211.952 10.248C210.96 9.288 208.848 8.296 205.968 8.296C201.52 8.296 197.712 11.784 197.712 17C197.712 22.088 201.168 25.384 205.776 25.384C209.264 25.384 211.216 23.656 212.464 22.408L211.6 19.016ZM227.389 20.904V14.12C227.389 10.152 225.469 8.296 221.661 8.296C219.261 8.296 217.501 9.032 216.061 9.8L215.261 14.568L215.613 14.6C218.077 9.896 219.645 9.064 221.597 9.064C223.997 9.064 224.477 11.656 224.477 14.408V15.848C223.549 15.944 222.557 16.008 221.469 16.136C217.245 16.616 214.525 18.664 214.525 21.544C214.525 23.816 216.221 25.32 218.813 25.32C220.765 25.32 222.973 24.392 224.573 22.856C224.573 23.528 225.341 24.616 225.757 25.032H228.893V24.744C227.741 23.56 227.389 22.728 227.389 20.904ZM224.477 21.992C223.261 23.336 221.725 23.976 220.381 23.976C218.717 23.976 217.405 23.208 217.405 21.032C217.405 18.056 220.285 17.032 224.477 16.616V21.992ZM240.953 8.136C237.593 8.136 235.545 9.672 234.649 12.04L234.521 12.072L234.649 8.232H234.361C234.105 8.392 233.817 8.52 233.497 8.616L232.505 8.936C231.481 9.16 230.617 9.224 230.617 9.224V9.544C231.449 10.248 231.705 10.76 231.705 11.752V22.056C231.673 23.528 231.513 24.232 231.097 24.776V25H235.257V24.776C234.777 24.168 234.649 23.368 234.649 21.544V15.432C234.681 12.584 235.769 10.632 238.105 10.632C239.481 10.632 240.633 11.176 241.465 12.84L241.817 12.712L240.953 8.136ZM250.958 8.296C246.222 8.296 243.182 11.784 243.182 17.064C243.182 22.056 246.414 25.32 251.022 25.32C253.646 25.32 255.854 24.104 257.422 22.984L256.654 19.016H256.43C255.278 22.664 253.39 24.296 251.278 24.296C248.782 24.296 246.382 22.024 246.382 16.584V15.912C246.382 15.912 255.086 15.912 257.71 15.912C257.902 15.912 258.03 15.624 258.03 15.496C258.03 12.04 255.374 8.296 250.958 8.296ZM255.278 15.176H246.414C246.734 11.656 248.494 9.064 251.182 9.064C253.774 9.064 255.47 11.528 255.278 15.176ZM10.432 51.296C8.288 51.296 6.592 52.384 5.088 53.984H4.992V52.544V51.232H4.704C3.232 52.128 0.96 52.224 0.96 52.224V52.544C1.824 53.28 2.048 53.824 2.048 54.848V75.52H2.336C3.296 75.04 4.768 74.88 5.472 74.72L5.504 74.528C5.504 74.528 4.992 72.928 4.992 71.904V66.688C6.176 67.776 7.712 68.384 9.504 68.384C13.792 68.384 17.824 64.832 17.824 59.584C17.824 54.72 14.432 51.296 10.432 51.296ZM9.216 67.36C7.328 67.36 5.76 66.176 4.992 64.32V55.392C6.336 53.856 8 52.736 9.536 52.736C12.288 52.736 14.688 55.008 14.688 59.872C14.688 64.672 12.224 67.36 9.216 67.36ZM30.203 51.136C26.843 51.136 24.795 52.672 23.899 55.04L23.771 55.072L23.899 51.232H23.611C23.355 51.392 23.067 51.52 22.747 51.616L21.755 51.936C20.731 52.16 19.867 52.224 19.867 52.224V52.544C20.699 53.248 20.955 53.76 20.955 54.752V65.056C20.923 66.528 20.763 67.232 20.347 67.776V68H24.507V67.776C24.027 67.168 23.899 66.368 23.899 64.544V58.432C23.931 55.584 25.019 53.632 27.355 53.632C28.731 53.632 29.883 54.176 30.715 55.84L31.067 55.712L30.203 51.136ZM40.7838 51.296C35.9838 51.296 32.3997 54.752 32.3997 59.968C32.3997 65.184 35.8238 68.384 40.4958 68.384C45.2958 68.384 48.9118 64.96 48.9118 59.776C48.9118 54.528 45.4558 51.296 40.7838 51.296ZM40.6878 67.616C37.6478 67.616 35.5358 64.48 35.5358 59.776C35.5358 55.104 37.5198 52.064 40.5918 52.064C43.6318 52.064 45.7758 55.232 45.7758 59.936C45.7758 64.576 43.7598 67.616 40.6878 67.616ZM66.416 63.296V43.104H66.128C64.688 44 62.384 44.096 62.384 44.096V44.416C63.248 45.152 63.504 45.696 63.504 46.72V52.992C62.288 51.936 60.752 51.296 58.992 51.296C54.672 51.296 51.056 54.88 51.056 60.128C51.056 64.96 54.064 68.384 58.064 68.384C60.208 68.384 62.16 67.328 63.664 65.696C63.824 66.528 64.176 67.264 64.656 68.032H67.792V67.744C66.768 65.888 66.416 65.12 66.416 63.296ZM58.96 67.296C56.144 67.296 54.192 64.832 54.192 59.84C54.192 54.88 56.24 52.256 59.28 52.256C61.168 52.256 63.088 53.312 63.504 55.136V64.64C62 66.208 60.496 67.296 58.96 67.296ZM84.5953 63.904V51.232H84.3073C83.3793 51.712 81.8753 51.872 81.1713 52V52.224C81.1713 52.224 81.6833 53.824 81.6833 54.848V64.032C80.7873 65.728 79.0273 67.008 77.6193 67.008C73.5873 67.008 73.4273 62.656 73.4273 62.656V60.32H73.4593V51.232H73.1713C71.6993 52.128 69.4273 52.224 69.4273 52.224V52.544C70.1953 53.216 70.4833 53.728 70.5153 54.592V62.592C70.5153 66.528 72.3713 68.384 75.7633 68.384C78.1313 68.384 80.2753 67.168 81.7793 65.568L81.9393 65.536C82.2593 66.592 82.4513 67.008 83.0913 68.032H85.8753V67.744C84.8513 66.464 84.5953 65.728 84.5953 63.904ZM101.757 62.016H101.533C100.125 65.952 98.3965 67.296 96.1565 67.296C93.6285 67.296 91.0365 64.704 91.0365 59.328C91.0365 54.72 93.1165 52.064 96.0605 52.064C98.6845 52.064 100.765 53.6 101.917 56.8H102.077L102.109 53.248C101.117 52.288 99.0045 51.296 96.1245 51.296C91.6765 51.296 87.8685 54.784 87.8685 60C87.8685 65.088 91.3245 68.384 95.9325 68.384C99.4205 68.384 101.373 66.656 102.621 65.408L101.757 62.016ZM114.633 63.712L114.441 63.68C113.513 66.592 112.585 67.552 111.497 67.552C110.377 67.552 109.321 66.432 109.321 64.096V52.704C110.601 52.704 112.425 53.152 114.729 54.176H114.889L114.857 51.68H109.289L109.321 46.432H108.937C108.937 46.432 107.593 50.72 106.441 51.552C105.993 51.872 104.041 51.936 104.041 51.936V52.672H106.409V63.904C106.409 66.56 108.233 68.384 111.017 68.384C113.353 68.384 114.569 67.744 115.561 67.008L114.633 63.712ZM125.054 58.688L123.71 58.176C121.854 57.44 119.934 56.48 119.934 54.528C119.934 53.024 121.598 52.064 123.486 52.064C125.854 52.064 127.486 53.248 129.598 56.8H129.918L129.598 53.088C127.806 51.872 126.142 51.296 123.806 51.296C119.998 51.296 117.598 53.216 117.598 55.808C117.598 58.72 120.542 59.872 122.718 60.736L124.094 61.248C126.206 62.048 127.902 62.56 127.934 64.512C127.966 66.016 126.75 67.648 124.446 67.648C122.27 67.648 119.71 66.208 118.174 62.432H117.886L117.374 66.368C118.75 67.424 120.766 68.384 124.03 68.384C128.318 68.384 130.366 66.336 130.366 63.52C130.366 60.48 127.134 59.488 125.054 58.688Z" fill="black"/>
</svg>
