<svg width="311" height="76" viewBox="0 0 311 76" fill="none" xmlns="http://www.w3.org/2000/svg">
<path d="M22.016 14.152H11.616V14.312L12.992 17.032L13.152 17.064C14.656 15.816 17.248 14.92 18.336 14.92C18.976 14.92 19.392 15.208 19.392 15.944C19.392 20.616 16.768 24.616 12.768 24.616C7.552 24.616 4.416 20.264 4.416 13.768C4.416 7.08 7.552 3.016 12.48 3.016C15.872 3.016 18.688 5.064 20.704 10.408L21.056 10.376L20.736 4.136C18.56 2.952 16.352 2.248 12.768 2.248C6.048 2.248 0.992 6.824 0.992 13.96C0.992 21.16 5.344 25.384 12.512 25.384C19.424 25.384 22.24 20.84 22.24 14.376C22.24 14.344 22.016 14.152 22.016 14.152ZM32.1453 8.296C27.4093 8.296 24.3693 11.784 24.3693 17.064C24.3693 22.056 27.6013 25.32 32.2093 25.32C34.8333 25.32 37.0413 24.104 38.6093 22.984L37.8413 19.016H37.6173C36.4653 22.664 34.5773 24.296 32.4653 24.296C29.9693 24.296 27.5693 22.024 27.5693 16.584V15.912C27.5693 15.912 36.2733 15.912 38.8973 15.912C39.0893 15.912 39.2173 15.624 39.2173 15.496C39.2173 12.04 36.5613 8.296 32.1453 8.296ZM36.4653 15.176H27.6013C27.9213 11.656 29.6813 9.064 32.3693 9.064C34.9613 9.064 36.6573 11.528 36.4653 15.176ZM50.883 20.712L50.691 20.68C49.763 23.592 48.835 24.552 47.747 24.552C46.627 24.552 45.571 23.432 45.571 21.096V9.704C46.851 9.704 48.675 10.152 50.979 11.176H51.139L51.107 8.68H45.539L45.571 3.432H45.187C45.187 3.432 43.843 7.72 42.691 8.552C42.243 8.872 40.291 8.936 40.291 8.936V9.672H42.659V20.904C42.659 23.56 44.483 25.384 47.267 25.384C49.603 25.384 50.819 24.744 51.811 24.008L50.883 20.712ZM70.8333 8.68C70.8653 10.856 70.6093 13.704 68.9453 17.736L67.3773 21.448H67.2493L62.5773 8.68H59.4413L66.3213 23.816L65.7133 25.288C64.1773 28.04 62.8013 29.032 59.3773 29.224L59.2172 29.32L59.8253 32.136C62.8653 32.136 65.4253 29.288 66.8973 25.768L70.1933 17.8C71.8573 13.8 72.8493 11.304 74.1293 8.68H70.8333ZM82.6275 8.296C77.8275 8.296 74.2435 11.752 74.2435 16.968C74.2435 22.184 77.6675 25.384 82.3395 25.384C87.1395 25.384 90.7555 21.96 90.7555 16.776C90.7555 11.528 87.2995 8.296 82.6275 8.296ZM82.5315 24.616C79.4915 24.616 77.3795 21.48 77.3795 16.776C77.3795 12.104 79.3635 9.064 82.4355 9.064C85.4755 9.064 87.6195 12.232 87.6195 16.936C87.6195 21.576 85.6035 24.616 82.5315 24.616ZM107.908 20.904V8.232H107.62C106.692 8.712 105.188 8.872 104.484 9V9.224C104.484 9.224 104.996 10.824 104.996 11.848V21.032C104.1 22.728 102.34 24.008 100.932 24.008C96.8998 24.008 96.7398 19.656 96.7398 19.656V17.32H96.7718V8.232H96.4838C95.0118 9.128 92.7398 9.224 92.7398 9.224V9.544C93.5078 10.216 93.7958 10.728 93.8278 11.592V19.592C93.8278 23.528 95.6838 25.384 99.0758 25.384C101.444 25.384 103.588 24.168 105.092 22.568L105.252 22.536C105.572 23.592 105.764 24.008 106.404 25.032H109.188V24.744C108.164 23.464 107.908 22.728 107.908 20.904ZM121.453 8.136C118.093 8.136 116.045 9.672 115.149 12.04L115.021 12.072L115.149 8.232H114.861C114.605 8.392 114.317 8.52 113.997 8.616L113.005 8.936C111.981 9.16 111.117 9.224 111.117 9.224V9.544C111.949 10.248 112.205 10.76 112.205 11.752V22.056C112.173 23.528 112.013 24.232 111.597 24.776V25H115.757V24.776C115.277 24.168 115.149 23.368 115.149 21.544V15.432C115.181 12.584 116.269 10.632 118.605 10.632C119.981 10.632 121.133 11.176 121.965 12.84L122.317 12.712L121.453 8.136ZM140.182 8.296C138.038 8.296 136.342 9.384 134.838 10.984H134.742V9.544V8.232H134.454C132.982 9.128 130.71 9.224 130.71 9.224V9.544C131.574 10.28 131.798 10.824 131.798 11.848V32.52H132.086C133.046 32.04 134.518 31.88 135.222 31.72L135.254 31.528C135.254 31.528 134.742 29.928 134.742 28.904V23.688C135.926 24.776 137.462 25.384 139.254 25.384C143.542 25.384 147.574 21.832 147.574 16.584C147.574 11.72 144.182 8.296 140.182 8.296ZM138.966 24.36C137.078 24.36 135.51 23.176 134.742 21.32V12.392C136.086 10.856 137.75 9.736 139.286 9.736C142.038 9.736 144.438 12.008 144.438 16.872C144.438 21.672 141.974 24.36 138.966 24.36ZM157.489 8.296C152.753 8.296 149.713 11.784 149.713 17.064C149.713 22.056 152.945 25.32 157.553 25.32C160.177 25.32 162.385 24.104 163.953 22.984L163.185 19.016H162.961C161.809 22.664 159.921 24.296 157.809 24.296C155.313 24.296 152.913 22.024 152.913 16.584V15.912C152.913 15.912 161.617 15.912 164.241 15.912C164.433 15.912 164.561 15.624 164.561 15.496C164.561 12.04 161.905 8.296 157.489 8.296ZM161.809 15.176H152.945C153.265 11.656 155.025 9.064 157.713 9.064C160.305 9.064 162.001 11.528 161.809 15.176ZM176.922 8.136C173.562 8.136 171.514 9.672 170.618 12.04L170.49 12.072L170.618 8.232H170.33C170.074 8.392 169.786 8.52 169.466 8.616L168.474 8.936C167.45 9.16 166.586 9.224 166.586 9.224V9.544C167.418 10.248 167.674 10.76 167.674 11.752V22.056C167.642 23.528 167.482 24.232 167.066 24.776V25H171.226V24.776C170.746 24.168 170.618 23.368 170.618 21.544V15.432C170.65 12.584 171.738 10.632 174.074 10.632C175.45 10.632 176.602 11.176 177.434 12.84L177.786 12.712L176.922 8.136ZM187.241 15.688L185.897 15.176C184.041 14.44 182.121 13.48 182.121 11.528C182.121 10.024 183.785 9.064 185.673 9.064C188.041 9.064 189.673 10.248 191.785 13.8H192.105L191.785 10.088C189.993 8.872 188.329 8.296 185.993 8.296C182.185 8.296 179.785 10.216 179.785 12.808C179.785 15.72 182.729 16.872 184.905 17.736L186.281 18.248C188.393 19.048 190.089 19.56 190.121 21.512C190.153 23.016 188.937 24.648 186.633 24.648C184.457 24.648 181.897 23.208 180.361 19.432H180.073L179.561 23.368C180.937 24.424 182.953 25.384 186.217 25.384C190.505 25.384 192.553 23.336 192.553 20.52C192.553 17.48 189.321 16.488 187.241 15.688ZM203.19 8.296C198.39 8.296 194.806 11.752 194.806 16.968C194.806 22.184 198.23 25.384 202.902 25.384C207.702 25.384 211.318 21.96 211.318 16.776C211.318 11.528 207.862 8.296 203.19 8.296ZM203.094 24.616C200.054 24.616 197.942 21.48 197.942 16.776C197.942 12.104 199.926 9.064 202.998 9.064C206.038 9.064 208.182 12.232 208.182 16.936C208.182 21.576 206.166 24.616 203.094 24.616ZM228.63 21.896V14.12C228.63 10.152 226.806 8.296 223.382 8.296C220.982 8.296 219.222 9.384 217.526 10.984H217.43V8.232H217.142C215.67 9.128 213.398 9.224 213.398 9.224V9.544C214.23 10.28 214.486 10.792 214.486 11.784V21.992C214.454 23.496 214.294 24.232 213.878 24.776V25.032H218.038V24.776C217.558 24.168 217.43 23.368 217.43 21.544V12.392C218.774 10.728 220.534 9.704 222.134 9.704C224.662 9.704 225.718 11.656 225.718 14.056V21.544C225.718 23.368 225.558 24.168 225.11 24.776V25H229.27V24.776C228.822 24.2 228.662 23.464 228.63 21.896ZM244.389 20.904V14.12C244.389 10.152 242.469 8.296 238.661 8.296C236.261 8.296 234.501 9.032 233.061 9.8L232.261 14.568L232.613 14.6C235.077 9.896 236.645 9.064 238.597 9.064C240.997 9.064 241.477 11.656 241.477 14.408V15.848C240.549 15.944 239.557 16.008 238.469 16.136C234.245 16.616 231.525 18.664 231.525 21.544C231.525 23.816 233.221 25.32 235.813 25.32C237.765 25.32 239.973 24.392 241.573 22.856C241.573 23.528 242.341 24.616 242.757 25.032H245.893V24.744C244.741 23.56 244.389 22.728 244.389 20.904ZM241.477 21.992C240.261 23.336 238.725 23.976 237.381 23.976C235.717 23.976 234.405 23.208 234.405 21.032C234.405 18.056 237.285 17.032 241.477 16.616V21.992ZM251.425 21.544V0.103998H251.137C249.665 0.999998 247.393 1.096 247.393 1.096V1.416C248.257 2.152 248.481 2.696 248.481 3.72V21.576C248.481 23.368 248.353 24.168 247.873 24.776V25H252.033V24.776C251.553 24.168 251.425 23.368 251.425 21.544ZM258.369 21.544V8.328H258.081C256.609 9.224 254.337 9.32 254.337 9.32V9.672C255.201 10.408 255.424 10.92 255.424 11.976V21.544C255.424 23.368 255.297 24.168 254.817 24.776V25H258.977V24.776C258.497 24.168 258.369 23.368 258.369 21.544ZM256.641 5.768C257.665 5.768 258.497 4.936 258.497 3.912C258.497 2.888 257.665 2.056 256.641 2.056C255.617 2.056 254.785 2.888 254.785 3.912C254.785 4.936 255.617 5.768 256.641 5.768ZM274.17 18.536C271.962 22.6 270.33 24.264 267.258 24.264H265.05L274.138 8.936V8.68H262.682L261.402 14.888H261.722C263.13 10.696 265.37 9.512 268.442 9.512H270.618L261.018 24.712V25H273.146L274.362 18.536H274.17ZM284.114 8.296C279.378 8.296 276.338 11.784 276.338 17.064C276.338 22.056 279.57 25.32 284.178 25.32C286.802 25.32 289.01 24.104 290.578 22.984L289.81 19.016H289.586C288.434 22.664 286.546 24.296 284.434 24.296C281.938 24.296 279.538 22.024 279.538 16.584V15.912C279.538 15.912 288.242 15.912 290.866 15.912C291.058 15.912 291.186 15.624 291.186 15.496C291.186 12.04 288.53 8.296 284.114 8.296ZM288.434 15.176H279.57C279.89 11.656 281.65 9.064 284.338 9.064C286.93 9.064 288.626 11.528 288.434 15.176ZM308.635 20.296V0.103998H308.347C306.907 0.999998 304.603 1.096 304.603 1.096V1.416C305.467 2.152 305.723 2.696 305.723 3.72V9.992C304.507 8.936 302.971 8.296 301.211 8.296C296.891 8.296 293.275 11.88 293.275 17.128C293.275 21.96 296.283 25.384 300.283 25.384C302.427 25.384 304.379 24.328 305.883 22.696C306.043 23.528 306.395 24.264 306.875 25.032H310.011V24.744C308.987 22.888 308.635 22.12 308.635 20.296ZM301.179 24.296C298.363 24.296 296.411 21.832 296.411 16.84C296.411 11.88 298.459 9.256 301.499 9.256C303.387 9.256 305.307 10.312 305.723 12.136V21.64C304.219 23.208 302.715 24.296 301.179 24.296ZM10.432 51.296C8.288 51.296 6.592 52.384 5.088 53.984H4.992V52.544V51.232H4.704C3.232 52.128 0.96 52.224 0.96 52.224V52.544C1.824 53.28 2.048 53.824 2.048 54.848V75.52H2.336C3.296 75.04 4.768 74.88 5.472 74.72L5.504 74.528C5.504 74.528 4.992 72.928 4.992 71.904V66.688C6.176 67.776 7.712 68.384 9.504 68.384C13.792 68.384 17.824 64.832 17.824 59.584C17.824 54.72 14.432 51.296 10.432 51.296ZM9.216 67.36C7.328 67.36 5.76 66.176 4.992 64.32V55.392C6.336 53.856 8 52.736 9.536 52.736C12.288 52.736 14.688 55.008 14.688 59.872C14.688 64.672 12.224 67.36 9.216 67.36ZM27.739 51.296C23.003 51.296 19.963 54.784 19.963 60.064C19.963 65.056 23.195 68.32 27.803 68.32C30.427 68.32 32.635 67.104 34.203 65.984L33.435 62.016H33.211C32.059 65.664 30.171 67.296 28.059 67.296C25.563 67.296 23.163 65.024 23.163 59.584V58.912C23.163 58.912 31.867 58.912 34.491 58.912C34.683 58.912 34.811 58.624 34.811 58.496C34.811 55.04 32.155 51.296 27.739 51.296ZM32.059 58.176H23.195C23.515 54.656 25.275 52.064 27.963 52.064C30.555 52.064 32.251 54.528 32.059 58.176ZM47.1718 51.136C43.8118 51.136 41.7638 52.672 40.8678 55.04L40.7398 55.072L40.8678 51.232H40.5798C40.3238 51.392 40.0358 51.52 39.7158 51.616L38.7238 51.936C37.6998 52.16 36.8358 52.224 36.8358 52.224V52.544C37.6678 53.248 37.9238 53.76 37.9238 54.752V65.056C37.8918 66.528 37.7318 67.232 37.3158 67.776V68H41.4758V67.776C40.9958 67.168 40.8678 66.368 40.8678 64.544V58.432C40.8998 55.584 41.9878 53.632 44.3238 53.632C45.6998 53.632 46.8518 54.176 47.6838 55.84L48.0358 55.712L47.1718 51.136ZM53.5873 64.544V51.328H53.2993C51.8273 52.224 49.5553 52.32 49.5553 52.32V52.672C50.4193 53.408 50.6432 53.92 50.6432 54.976V64.544C50.6432 66.368 50.5153 67.168 50.0353 67.776V68H54.1953V67.776C53.7153 67.168 53.5873 66.368 53.5873 64.544ZM51.8593 48.768C52.8833 48.768 53.7153 47.936 53.7153 46.912C53.7153 45.888 52.8833 45.056 51.8593 45.056C50.8353 45.056 50.0033 45.888 50.0033 46.912C50.0033 47.936 50.8353 48.768 51.8593 48.768ZM64.9088 51.296C60.1088 51.296 56.5247 54.752 56.5247 59.968C56.5247 65.184 59.9488 68.384 64.6208 68.384C69.4208 68.384 73.0368 64.96 73.0368 59.776C73.0368 54.528 69.5808 51.296 64.9088 51.296ZM64.8128 67.616C61.7728 67.616 59.6608 64.48 59.6608 59.776C59.6608 55.104 61.6448 52.064 64.7168 52.064C67.7568 52.064 69.9008 55.232 69.9008 59.936C69.9008 64.576 67.8848 67.616 64.8128 67.616ZM90.541 63.296V43.104H90.253C88.813 44 86.509 44.096 86.509 44.096V44.416C87.373 45.152 87.629 45.696 87.629 46.72V52.992C86.413 51.936 84.877 51.296 83.117 51.296C78.797 51.296 75.181 54.88 75.181 60.128C75.181 64.96 78.189 68.384 82.189 68.384C84.333 68.384 86.285 67.328 87.789 65.696C87.949 66.528 88.301 67.264 88.781 68.032H91.917V67.744C90.893 65.888 90.541 65.12 90.541 63.296ZM83.085 67.296C80.269 67.296 78.317 64.832 78.317 59.84C78.317 54.88 80.365 52.256 83.405 52.256C85.293 52.256 87.213 53.312 87.629 55.136V64.64C86.125 66.208 84.621 67.296 83.085 67.296ZM109.862 51.296C107.718 51.296 105.894 52.288 104.39 53.888V43.104H104.102C102.63 44 100.358 44.096 100.358 44.096V44.416C101.222 45.152 101.446 45.696 101.446 46.72L101.542 68.032H101.766L103.142 66.24H103.334C104.71 67.584 106.566 68.384 108.934 68.384C113.222 68.384 116.87 64.832 116.87 59.584C116.87 54.72 113.862 51.296 109.862 51.296ZM108.646 67.648C106.758 67.648 105.19 66.656 104.39 64.768V55.456C105.318 53.824 107.398 52.544 108.934 52.544C111.686 52.544 113.734 54.848 113.734 59.872C113.734 64.8 111.622 67.648 108.646 67.648ZM127.409 51.296C122.609 51.296 119.025 54.752 119.025 59.968C119.025 65.184 122.449 68.384 127.121 68.384C131.921 68.384 135.537 64.96 135.537 59.776C135.537 54.528 132.081 51.296 127.409 51.296ZM127.313 67.616C124.273 67.616 122.161 64.48 122.161 59.776C122.161 55.104 124.145 52.064 127.217 52.064C130.257 52.064 132.401 55.232 132.401 59.936C132.401 64.576 130.385 67.616 127.313 67.616ZM145 58.976C145 58.976 150.216 53.088 151.464 51.68H147.88C147.528 53.056 146.248 55.648 144.328 58.016L139.72 51.68H136.296L142.664 59.84L135.912 68H139.464C139.624 66.592 140.136 65.216 141.864 62.784L143.464 60.704L147.944 68H151.784L145 58.976Z" fill="white" fill-opacity="0.8"/>
</svg>
