<svg width="240" height="76" viewBox="0 0 240 76" fill="none" xmlns="http://www.w3.org/2000/svg">
<path d="M13.728 14.664C16.64 13.896 19.488 11.432 19.488 8.264C19.488 4.456 16.32 2.632 10.4 2.632H0.896V3.016H1.216C1.728 3.048 2.368 3.208 2.368 3.784V20.36C2.368 22.824 2.08 24.328 1.44 24.776V25H6.464V24.776C5.76 24.296 5.536 22.664 5.536 19.88L5.504 19.912V15.144H10.08C11.936 15.144 12.16 15.272 12.32 15.528C14.592 19.208 15.584 21.736 15.584 25H20.8C20.8 25 16.064 16.52 13.728 14.856C13.696 14.824 13.728 14.664 13.728 14.664ZM10.848 14.408C10.24 14.408 6.24 14.344 5.504 14.216V3.368H10.272C14.336 3.368 16.32 5.224 16.32 8.488C16.32 11.688 14.208 14.408 10.848 14.408ZM29.1765 8.296C24.4405 8.296 21.4005 11.784 21.4005 17.064C21.4005 22.056 24.6325 25.32 29.2405 25.32C31.8645 25.32 34.0725 24.104 35.6405 22.984L34.8725 19.016H34.6485C33.4965 22.664 31.6085 24.296 29.4965 24.296C27.0005 24.296 24.6005 22.024 24.6005 16.584V15.912C24.6005 15.912 33.3045 15.912 35.9285 15.912C36.1205 15.912 36.2485 15.624 36.2485 15.496C36.2485 12.04 33.5925 8.296 29.1765 8.296ZM33.4965 15.176H24.6325C24.9525 11.656 26.7125 9.064 29.4005 9.064C31.9925 9.064 33.6885 11.528 33.4965 15.176ZM42.3373 21.544V8.328H42.0493C40.5773 9.224 38.3053 9.32 38.3053 9.32V9.672C39.1693 10.408 39.3932 10.92 39.3932 11.976V21.544C39.3932 23.368 39.2653 24.168 38.7853 24.776V25H42.9453V24.776C42.4653 24.168 42.3373 23.368 42.3373 21.544ZM40.6093 5.768C41.6333 5.768 42.4653 4.936 42.4653 3.912C42.4653 2.888 41.6333 2.056 40.6093 2.056C39.5853 2.056 38.7533 2.888 38.7533 3.912C38.7533 4.936 39.5853 5.768 40.6093 5.768ZM71.1308 21.544V14.12C71.1308 10.152 69.3068 8.296 65.9148 8.296C63.2908 8.296 61.6588 9.256 59.7708 11.336C59.0348 9.288 57.1148 8.296 54.9708 8.296C52.4748 8.296 50.9708 9.256 49.4028 10.952H49.2428V8.232H48.9548C47.4828 9.128 45.2108 9.224 45.2108 9.224V9.576C46.0748 10.312 46.2988 10.824 46.2988 11.88V21.544C46.2988 23.368 46.1708 24.168 45.6908 24.776V25H49.8508V24.776C49.3708 24.168 49.2428 23.368 49.2428 21.544V12.232C50.8428 10.472 52.0588 9.736 53.9788 9.736C55.8988 9.736 57.2428 11.048 57.2428 14.056V22.216C57.2108 23.56 57.0508 24.264 56.6348 24.776V25H60.7948V24.776C60.3148 24.168 60.1868 23.368 60.1868 21.576V14.504C60.1868 13.64 60.1548 13.192 60.0588 12.552C61.6268 10.376 63.3228 9.704 64.6348 9.704C66.9708 9.704 68.2508 11.336 68.2508 14.056V21.544H68.2188C68.2188 23.368 68.0908 24.168 67.6108 24.776V25H71.7708V24.776C71.2908 24.168 71.1308 23.368 71.1308 21.544ZM86.8888 20.904V14.12C86.8888 10.152 84.9688 8.296 81.1608 8.296C78.7608 8.296 77.0008 9.032 75.5608 9.8L74.7608 14.568L75.1128 14.6C77.5768 9.896 79.1448 9.064 81.0968 9.064C83.4968 9.064 83.9768 11.656 83.9768 14.408V15.848C83.0488 15.944 82.0568 16.008 80.9688 16.136C76.7448 16.616 74.0247 18.664 74.0247 21.544C74.0247 23.816 75.7208 25.32 78.3128 25.32C80.2648 25.32 82.4728 24.392 84.0728 22.856C84.0728 23.528 84.8408 24.616 85.2568 25.032H88.3928V24.744C87.2408 23.56 86.8888 22.728 86.8888 20.904ZM83.9768 21.992C82.7608 23.336 81.2248 23.976 79.8808 23.976C78.2168 23.976 76.9048 23.208 76.9048 21.032C76.9048 18.056 79.7848 17.032 83.9768 16.616V21.992ZM99.3048 22.184L95.3048 21.992C94.0888 21.928 93.0648 21.384 93.0648 20.648C93.0648 20.168 93.3528 19.784 93.9288 19.4C94.0568 19.336 94.1848 19.272 94.1848 19.272C95.0488 19.56 95.4008 19.624 96.4568 19.624C100.201 19.624 103.049 17.288 103.049 13.96C103.049 12.424 102.441 11.08 101.449 10.12C102.185 9.128 103.817 9.256 104.809 9.416L104.649 6.728C102.281 7.272 101.385 8.2 100.905 9.608C99.4328 8.488 98.1848 8.296 96.5528 8.296C92.8088 8.296 89.9608 10.632 89.9608 13.992C89.9608 16.2 91.3368 17.96 93.0648 18.888C91.5608 19.656 91.0488 20.456 91.0488 21.64C91.0488 23.24 92.5848 24.424 96.0088 24.808L98.9528 25.032C101.161 25.192 102.121 26.056 102.121 27.72C102.121 29.704 100.169 31.368 97.1288 31.368C94.7288 31.368 92.7768 29.992 92.1688 27.848C91.9128 27.016 91.8808 26.216 92.0088 25.672L91.7848 25.512L89.0328 27.688C89.0328 30.44 92.5848 32.392 96.5208 32.392C101.321 32.392 104.649 29.896 104.649 26.536C104.649 23.976 102.729 22.504 99.3048 22.184ZM92.9368 13.96C92.9368 11.048 94.2808 9.064 96.4888 9.064C98.6648 9.064 100.073 11.08 100.073 13.992C100.073 16.904 98.7608 18.888 96.5208 18.888C94.3448 18.888 92.9368 16.904 92.9368 13.96ZM110.431 21.544V8.328H110.143C108.671 9.224 106.399 9.32 106.399 9.32V9.672C107.263 10.408 107.487 10.92 107.487 11.976V21.544C107.487 23.368 107.359 24.168 106.879 24.776V25H111.039V24.776C110.559 24.168 110.431 23.368 110.431 21.544ZM108.703 5.768C109.727 5.768 110.559 4.936 110.559 3.912C110.559 2.888 109.727 2.056 108.703 2.056C107.679 2.056 106.847 2.888 106.847 3.912C106.847 4.936 107.679 5.768 108.703 5.768ZM128.537 21.896V14.12C128.537 10.152 126.713 8.296 123.289 8.296C120.889 8.296 119.129 9.384 117.433 10.984H117.337V8.232H117.049C115.577 9.128 113.305 9.224 113.305 9.224V9.544C114.137 10.28 114.393 10.792 114.393 11.784V21.992C114.361 23.496 114.201 24.232 113.785 24.776V25.032H117.945V24.776C117.465 24.168 117.337 23.368 117.337 21.544V12.392C118.681 10.728 120.441 9.704 122.041 9.704C124.569 9.704 125.625 11.656 125.625 14.056V21.544C125.625 23.368 125.465 24.168 125.017 24.776V25H129.177V24.776C128.729 24.2 128.569 23.464 128.537 21.896ZM135.431 21.544V8.328H135.143C133.671 9.224 131.399 9.32 131.399 9.32V9.672C132.263 10.408 132.487 10.92 132.487 11.976V21.544C132.487 23.368 132.359 24.168 131.879 24.776V25H136.039V24.776C135.559 24.168 135.431 23.368 135.431 21.544ZM133.703 5.768C134.727 5.768 135.559 4.936 135.559 3.912C135.559 2.888 134.727 2.056 133.703 2.056C132.679 2.056 131.847 2.888 131.847 3.912C131.847 4.936 132.679 5.768 133.703 5.768ZM153.537 21.896V14.12C153.537 10.152 151.713 8.296 148.289 8.296C145.889 8.296 144.129 9.384 142.433 10.984H142.337V8.232H142.049C140.577 9.128 138.305 9.224 138.305 9.224V9.544C139.137 10.28 139.393 10.792 139.393 11.784V21.992C139.361 23.496 139.201 24.232 138.785 24.776V25.032H142.945V24.776C142.465 24.168 142.337 23.368 142.337 21.544V12.392C143.681 10.728 145.441 9.704 147.041 9.704C149.569 9.704 150.625 11.656 150.625 14.056V21.544C150.625 23.368 150.465 24.168 150.017 24.776V25H154.177V24.776C153.729 24.2 153.569 23.464 153.537 21.896ZM165.711 22.184L161.711 21.992C160.495 21.928 159.471 21.384 159.471 20.648C159.471 20.168 159.759 19.784 160.335 19.4C160.463 19.336 160.591 19.272 160.591 19.272C161.455 19.56 161.807 19.624 162.863 19.624C166.607 19.624 169.455 17.288 169.455 13.96C169.455 12.424 168.847 11.08 167.855 10.12C168.591 9.128 170.223 9.256 171.215 9.416L171.055 6.728C168.687 7.272 167.791 8.2 167.311 9.608C165.839 8.488 164.591 8.296 162.959 8.296C159.215 8.296 156.367 10.632 156.367 13.992C156.367 16.2 157.743 17.96 159.471 18.888C157.967 19.656 157.455 20.456 157.455 21.64C157.455 23.24 158.991 24.424 162.415 24.808L165.359 25.032C167.567 25.192 168.527 26.056 168.527 27.72C168.527 29.704 166.575 31.368 163.535 31.368C161.135 31.368 159.183 29.992 158.575 27.848C158.319 27.016 158.287 26.216 158.415 25.672L158.191 25.512L155.439 27.688C155.439 30.44 158.991 32.392 162.927 32.392C167.727 32.392 171.055 29.896 171.055 26.536C171.055 23.976 169.135 22.504 165.711 22.184ZM159.343 13.96C159.343 11.048 160.687 9.064 162.895 9.064C165.071 9.064 166.479 11.08 166.479 13.992C166.479 16.904 165.167 18.888 162.927 18.888C160.751 18.888 159.343 16.904 159.343 13.96ZM192.639 20.904V14.12C192.639 10.152 190.719 8.296 186.911 8.296C184.511 8.296 182.751 9.032 181.311 9.8L180.511 14.568L180.863 14.6C183.327 9.896 184.895 9.064 186.847 9.064C189.247 9.064 189.727 11.656 189.727 14.408V15.848C188.799 15.944 187.807 16.008 186.719 16.136C182.495 16.616 179.775 18.664 179.775 21.544C179.775 23.816 181.471 25.32 184.063 25.32C186.015 25.32 188.223 24.392 189.823 22.856C189.823 23.528 190.591 24.616 191.007 25.032H194.143V24.744C192.991 23.56 192.639 22.728 192.639 20.904ZM189.727 21.992C188.511 23.336 186.975 23.976 185.631 23.976C183.967 23.976 182.655 23.208 182.655 21.032C182.655 18.056 185.535 17.032 189.727 16.616V21.992ZM211.099 21.896V14.12C211.099 10.152 209.275 8.296 205.851 8.296C203.451 8.296 201.691 9.384 199.995 10.984H199.899V8.232H199.611C198.139 9.128 195.867 9.224 195.867 9.224V9.544C196.699 10.28 196.955 10.792 196.955 11.784V21.992C196.923 23.496 196.763 24.232 196.347 24.776V25.032H200.507V24.776C200.027 24.168 199.899 23.368 199.899 21.544V12.392C201.243 10.728 203.003 9.704 204.603 9.704C207.131 9.704 208.187 11.656 208.187 14.056V21.544C208.187 23.368 208.027 24.168 207.579 24.776V25H211.739V24.776C211.291 24.2 211.131 23.464 211.099 21.896ZM229.354 20.296V0.103998H229.066C227.626 0.999998 225.322 1.096 225.322 1.096V1.416C226.186 2.152 226.442 2.696 226.442 3.72V9.992C225.226 8.936 223.69 8.296 221.93 8.296C217.61 8.296 213.993 11.88 213.993 17.128C213.993 21.96 217.002 25.384 221.002 25.384C223.146 25.384 225.098 24.328 226.602 22.696C226.762 23.528 227.114 24.264 227.594 25.032H230.73V24.744C229.706 22.888 229.354 22.12 229.354 20.296ZM221.898 24.296C219.082 24.296 217.13 21.832 217.13 16.84C217.13 11.88 219.178 9.256 222.218 9.256C224.106 9.256 226.026 10.312 226.442 12.136V21.64C224.938 23.208 223.434 24.296 221.898 24.296ZM11.328 51.136C7.968 51.136 5.92 52.672 5.024 55.04L4.896 55.072L5.024 51.232H4.736C4.48 51.392 4.192 51.52 3.872 51.616L2.88 51.936C1.856 52.16 0.992 52.224 0.992 52.224V52.544C1.824 53.248 2.08 53.76 2.08 54.752V65.056C2.048 66.528 1.888 67.232 1.472 67.776V68H5.632V67.776C5.152 67.168 5.024 66.368 5.024 64.544V58.432C5.056 55.584 6.144 53.632 8.48 53.632C9.856 53.632 11.008 54.176 11.84 55.84L12.192 55.712L11.328 51.136ZM21.3328 51.296C16.5968 51.296 13.5568 54.784 13.5568 60.064C13.5568 65.056 16.7888 68.32 21.3968 68.32C24.0208 68.32 26.2288 67.104 27.7968 65.984L27.0288 62.016H26.8048C25.6528 65.664 23.7648 67.296 21.6528 67.296C19.1568 67.296 16.7568 65.024 16.7568 59.584V58.912C16.7568 58.912 25.4608 58.912 28.0848 58.912C28.2768 58.912 28.4048 58.624 28.4048 58.496C28.4048 55.04 25.7488 51.296 21.3328 51.296ZM25.6528 58.176H16.7888C17.1088 54.656 18.8688 52.064 21.5568 52.064C24.1488 52.064 25.8448 54.528 25.6528 58.176ZM48.4553 51.68C48.6153 54.208 48.8073 56.384 47.2393 60.992C47.0153 61.6 46.3753 63.168 46.3753 63.168H46.2473L41.1913 51.68H40.9993L37.0312 62.88H36.9033L32.7753 51.68H29.3193L36.0713 68H36.3593L40.3913 56.576H40.6153L45.6073 68H45.8633L48.5513 61.024C50.2473 56.704 51.0793 54.336 52.2953 51.68H48.4553ZM57.681 64.544V51.328H57.393C55.921 52.224 53.649 52.32 53.649 52.32V52.672C54.513 53.408 54.737 53.92 54.737 54.976V64.544C54.737 66.368 54.609 67.168 54.129 67.776V68H58.289V67.776C57.809 67.168 57.681 66.368 57.681 64.544ZM55.953 48.768C56.977 48.768 57.809 47.936 57.809 46.912C57.809 45.888 56.977 45.056 55.953 45.056C54.929 45.056 54.097 45.888 54.097 46.912C54.097 47.936 54.929 48.768 55.953 48.768ZM70.8905 51.136C67.5305 51.136 65.4825 52.672 64.5865 55.04L64.4585 55.072L64.5865 51.232H64.2985C64.0425 51.392 63.7545 51.52 63.4345 51.616L62.4425 51.936C61.4185 52.16 60.5545 52.224 60.5545 52.224V52.544C61.3865 53.248 61.6425 53.76 61.6425 54.752V65.056C61.6105 66.528 61.4505 67.232 61.0345 67.776V68H65.1945V67.776C64.7145 67.168 64.5865 66.368 64.5865 64.544V58.432C64.6185 55.584 65.7065 53.632 68.0425 53.632C69.4185 53.632 70.5705 54.176 71.4025 55.84L71.7545 55.712L70.8905 51.136ZM77.306 64.544V51.328H77.018C75.546 52.224 73.274 52.32 73.274 52.32V52.672C74.138 53.408 74.362 53.92 74.362 54.976V64.544C74.362 66.368 74.234 67.168 73.754 67.776V68H77.914V67.776C77.434 67.168 77.306 66.368 77.306 64.544ZM75.578 48.768C76.602 48.768 77.434 47.936 77.434 46.912C77.434 45.888 76.602 45.056 75.578 45.056C74.554 45.056 73.722 45.888 73.722 46.912C73.722 47.936 74.554 48.768 75.578 48.768ZM95.4115 64.896V57.12C95.4115 53.152 93.5875 51.296 90.1635 51.296C87.7635 51.296 86.0035 52.384 84.3075 53.984H84.2115V51.232H83.9235C82.4515 52.128 80.1795 52.224 80.1795 52.224V52.544C81.0115 53.28 81.2675 53.792 81.2675 54.784V64.992C81.2355 66.496 81.0755 67.232 80.6595 67.776V68.032H84.8195V67.776C84.3395 67.168 84.2115 66.368 84.2115 64.544V55.392C85.5555 53.728 87.3155 52.704 88.9155 52.704C91.4435 52.704 92.4995 54.656 92.4995 57.056V64.544C92.4995 66.368 92.3395 67.168 91.8915 67.776V68H96.0515V67.776C95.6035 67.2 95.4435 66.464 95.4115 64.896ZM107.586 65.184L103.586 64.992C102.37 64.928 101.346 64.384 101.346 63.648C101.346 63.168 101.634 62.784 102.21 62.4C102.338 62.336 102.466 62.272 102.466 62.272C103.33 62.56 103.682 62.624 104.738 62.624C108.482 62.624 111.33 60.288 111.33 56.96C111.33 55.424 110.722 54.08 109.73 53.12C110.466 52.128 112.098 52.256 113.09 52.416L112.93 49.728C110.562 50.272 109.666 51.2 109.186 52.608C107.714 51.488 106.466 51.296 104.834 51.296C101.09 51.296 98.242 53.632 98.242 56.992C98.242 59.2 99.618 60.96 101.346 61.888C99.842 62.656 99.33 63.456 99.33 64.64C99.33 66.24 100.866 67.424 104.29 67.808L107.234 68.032C109.442 68.192 110.402 69.056 110.402 70.72C110.402 72.704 108.45 74.368 105.41 74.368C103.01 74.368 101.058 72.992 100.45 70.848C100.194 70.016 100.162 69.216 100.29 68.672L100.066 68.512L97.314 70.688C97.314 73.44 100.866 75.392 104.802 75.392C109.602 75.392 112.93 72.896 112.93 69.536C112.93 66.976 111.01 65.504 107.586 65.184ZM101.218 56.96C101.218 54.048 102.562 52.064 104.77 52.064C106.946 52.064 108.354 54.08 108.354 56.992C108.354 59.904 107.042 61.888 104.802 61.888C102.626 61.888 101.218 59.904 101.218 56.96ZM129.554 58.688L128.21 58.176C126.354 57.44 124.434 56.48 124.434 54.528C124.434 53.024 126.098 52.064 127.986 52.064C130.354 52.064 131.986 53.248 134.098 56.8H134.418L134.098 53.088C132.306 51.872 130.642 51.296 128.306 51.296C124.498 51.296 122.098 53.216 122.098 55.808C122.098 58.72 125.042 59.872 127.218 60.736L128.594 61.248C130.706 62.048 132.402 62.56 132.434 64.512C132.466 66.016 131.25 67.648 128.946 67.648C126.77 67.648 124.21 66.208 122.674 62.432H122.386L121.874 66.368C123.25 67.424 125.266 68.384 128.53 68.384C132.818 68.384 134.866 66.336 134.866 63.52C134.866 60.48 131.634 59.488 129.554 58.688ZM144.927 51.296C140.191 51.296 137.151 54.784 137.151 60.064C137.151 65.056 140.383 68.32 144.991 68.32C147.615 68.32 149.823 67.104 151.391 65.984L150.623 62.016H150.399C149.247 65.664 147.359 67.296 145.247 67.296C142.751 67.296 140.351 65.024 140.351 59.584V58.912C140.351 58.912 149.055 58.912 151.679 58.912C151.871 58.912 151.999 58.624 151.999 58.496C151.999 55.04 149.343 51.296 144.927 51.296ZM149.247 58.176H140.383C140.703 54.656 142.463 52.064 145.151 52.064C147.743 52.064 149.439 54.528 149.247 58.176ZM157.831 64.544V43.104H157.543C156.071 44 153.799 44.096 153.799 44.096V44.416C154.663 45.152 154.887 45.696 154.887 46.72V64.576C154.887 66.368 154.759 67.168 154.279 67.776V68H158.439V67.776C157.959 67.168 157.831 66.368 157.831 64.544ZM167.815 43.424C164.615 43.424 162.535 44.96 162.535 48.8V51.68H160.167V52.448H162.535V64.544C162.535 66.368 162.375 67.168 161.895 67.776V68H166.055V67.776C165.607 67.2 165.447 66.432 165.447 64.8V52.448H169.927V51.68H165.447V48.64C165.447 45.472 166.087 44.032 167.879 44.032C168.903 44.032 169.799 44.512 170.951 47.456H171.143L172.583 44.512C170.855 43.648 169.415 43.424 167.815 43.424ZM168.358 58.016V60.224C170.406 59.936 175.142 60 177.382 60.224V58.016C174.63 58.176 170.886 58.176 168.358 58.016ZM192.975 62.016H192.751C191.343 65.952 189.615 67.296 187.375 67.296C184.847 67.296 182.255 64.704 182.255 59.328C182.255 54.72 184.335 52.064 187.279 52.064C189.903 52.064 191.983 53.6 193.135 56.8H193.295L193.327 53.248C192.335 52.288 190.223 51.296 187.343 51.296C182.895 51.296 179.087 54.784 179.087 60C179.087 65.088 182.543 68.384 187.151 68.384C190.639 68.384 192.591 66.656 193.839 65.408L192.975 62.016ZM208.764 63.904V57.12C208.764 53.152 206.844 51.296 203.036 51.296C200.636 51.296 198.876 52.032 197.436 52.8L196.636 57.568L196.988 57.6C199.452 52.896 201.02 52.064 202.972 52.064C205.372 52.064 205.852 54.656 205.852 57.408V58.848C204.924 58.944 203.932 59.008 202.844 59.136C198.62 59.616 195.9 61.664 195.9 64.544C195.9 66.816 197.596 68.32 200.188 68.32C202.14 68.32 204.348 67.392 205.948 65.856C205.948 66.528 206.716 67.616 207.132 68.032H210.268V67.744C209.116 66.56 208.764 65.728 208.764 63.904ZM205.852 64.992C204.636 66.336 203.1 66.976 201.756 66.976C200.092 66.976 198.78 66.208 198.78 64.032C198.78 61.056 201.66 60.032 205.852 59.616V64.992ZM222.328 51.136C218.968 51.136 216.92 52.672 216.024 55.04L215.896 55.072L216.024 51.232H215.736C215.48 51.392 215.192 51.52 214.872 51.616L213.88 51.936C212.856 52.16 211.992 52.224 211.992 52.224V52.544C212.824 53.248 213.08 53.76 213.08 54.752V65.056C213.048 66.528 212.888 67.232 212.472 67.776V68H216.632V67.776C216.152 67.168 216.024 66.368 216.024 64.544V58.432C216.056 55.584 217.144 53.632 219.48 53.632C220.856 53.632 222.008 54.176 222.84 55.84L223.192 55.712L222.328 51.136ZM232.333 51.296C227.597 51.296 224.557 54.784 224.557 60.064C224.557 65.056 227.789 68.32 232.397 68.32C235.021 68.32 237.229 67.104 238.797 65.984L238.029 62.016H237.805C236.653 65.664 234.765 67.296 232.653 67.296C230.157 67.296 227.757 65.024 227.757 59.584V58.912C227.757 58.912 236.461 58.912 239.085 58.912C239.277 58.912 239.405 58.624 239.405 58.496C239.405 55.04 236.749 51.296 232.333 51.296ZM236.653 58.176H227.789C228.109 54.656 229.869 52.064 232.557 52.064C235.149 52.064 236.845 54.528 236.653 58.176Z" fill="#1B1B50"/>
</svg>
